Coordinates
version=1
nRows=16
nColumns=36
inDegrees=yes

Units are S.I. units (second, meters, Newtons, ...)
If the header above contains a line with 'inDegrees', this indicates whether rotational values are in degrees (yes) or radians (no).

endheader
time	pelvis_tilt	pelvis_list	pelvis_rotation	pelvis_tx	pelvis_ty	pelvis_tz	hip_flexion_r	hip_adduction_r	hip_rotation_r	knee_angle_r	knee_angle_r_beta	ankle_angle_r	subtalar_angle_r	mtp_angle_r	hip_flexion_l	hip_adduction_l	hip_rotation_l	knee_angle_l	knee_angle_l_beta	ankle_angle_l	subtalar_angle_l	mtp_angle_l	lumbar_extension	lumbar_bending	lumbar_rotation	arm_flex_r	arm_add_r	arm_rot_r	elbow_flex_r	pro_sup_r	arm_flex_l	arm_add_l	arm_rot_l	elbow_flex_l	pro_sup_l
      0.00000000	      1.16676810	      0.81211277	     -3.31094059	     -0.93412935	      1.31673279	     -0.08616935	     -3.94549352	     -3.06719002	      7.28407123	      0.36572384	      0.00638309	      7.13190402	     -9.85932289	     -5.46952848	     -4.31650904	     -0.60174595	      3.28365408	      0.57758989	      0.01008085	      8.49432966	     -6.69605500	     -5.46952848	    -14.29253987	     -0.71819326	      1.71678460	      9.89836020	     -7.00531774	     26.19366421	     26.05270071	     72.72244156	      6.29076123	     -7.30803885	     24.72123978	     27.59898251	     65.89396915
      0.00416670	      0.74669039	      0.63305345	     -3.03673804	     -0.93435519	      1.31790010	     -0.08668378	     -3.67165755	     -2.58341399	      8.81147456	      0.30911045	      0.00539500	      9.17238676	     -8.78621508	     -6.37099979	     -3.93577850	     -0.56850069	      5.30853099	      0.43583187	      0.00760670	      8.06297301	     -8.00720717	     -6.37099979	    -13.78492533	     -0.45228558	      2.12957511	      9.58948230	     -6.75675358	     23.01175373	     26.19960392	     76.95737383	      6.61234867	     -6.85299707	     24.12074650	     27.80711640	     68.70892165
      0.00833330	     -0.12950614	      1.12075053	     -3.23574586	     -0.93236221	      1.31535727	     -0.08372839	     -2.69267113	     -2.86655688	      9.21854731	      0.24609355	      0.00429514	      9.36527151	     -9.66417457	     -6.56672178	     -3.04545660	     -0.19375942	      5.54764176	      0.40165995	      0.00701029	      7.79924320	     -8.82507910	     -6.56672178	    -12.97619037	     -1.38704603	      2.74224828	      9.06348884	     -5.93843552	     20.09560335	     26.45964204	     77.16458336	      6.92066343	     -6.98024817	     23.22323987	     27.85348913	     69.36872366
      0.01250000	      0.30094475	      1.22236923	     -3.37474766	     -0.93712757	      1.32024198	     -0.08509405	     -2.96101518	     -3.06655819	      9.58078292	      0.22064566	      0.00385099	      9.42321410	     -9.61500859	     -6.98931350	     -3.42701669	     -0.01460322	      6.00937590	      0.31272959	      0.00545816	      7.57482341	     -9.44137071	     -6.98931350	    -14.13568745	     -1.74816157	      3.23755948	      8.90342596	     -5.27433683	     15.04844315	     26.94462154	     84.14754873	      7.66207083	     -6.73620847	     21.13052689	     27.75514364	     75.51604938
      0.01666670	      0.44450358	      1.23212940	     -3.35421141	     -0.93598001	      1.31530748	     -0.08295495	     -3.06400348	     -3.03099706	      9.88083067	      0.20607138	      0.00359662	      9.45275010	     -9.84121016	     -7.25564300	     -3.52832191	      0.00692867	      6.58284707	      0.27503586	      0.00480028	      7.78855575	     -9.84173315	     -7.25564300	    -14.63018261	     -1.88441317	      3.36894650	      8.72894874	     -4.89881587	     13.02094536	     27.53938918	     87.78849232	      7.72498795	     -6.70466031	     19.08757824	     28.44755509	     79.76718539
      0.02083330	      0.58482652	      1.28181776	     -3.34044437	     -0.93497465	      1.31724938	     -0.08410017	     -3.27572922	     -3.11652717	     10.10465163	      0.20337070	      0.00354949	      9.08717762	    -10.35884525	     -7.28226960	     -3.66513028	      0.09388717	      6.91333645	      0.25311817	      0.00441775	      8.01329899	     -9.92967677	     -7.28226960	    -14.75205081	     -1.94623043	      3.60899656	      8.57948230	     -4.88133275	     13.03667426	     27.66053297	     86.41915947	      7.78870969	     -6.67396598	     18.94604960	     28.73368764	     78.88027736
      0.02500000	      0.83731304	      1.26140362	     -3.44027180	     -0.93514297	      1.32001736	     -0.08318283	     -3.56178929	     -3.11357791	     10.43937680	      0.19699562	      0.00343822	      8.99090830	    -10.42564294	     -7.32245623	     -3.97812917	      0.06979222	      7.30175581	      0.24030765	      0.00419416	      7.98830919	    -10.35499551	     -7.32245623	    -15.10690797	     -1.95085488	      3.69143577	      8.51866710	     -5.02768017	     13.94468201	     28.20210385	     85.18343841	      7.79356401	     -6.80138591	     19.30154438	     29.37481121	     78.51395727
      0.02916670	      0.81504451	      1.29751005	     -3.46142759	     -0.93442629	      1.31615705	     -0.08256231	     -3.59255985	     -3.15002326	     10.48633010	      0.19236308	      0.00335737	      8.96097126	    -10.42923403	     -7.32377969	     -3.99253221	      0.09384150	      7.53605093	      0.23954855	      0.00418091	      8.11062179	    -10.44600209	     -7.32377969	    -14.87889012	     -1.97841238	      3.79290906	      8.32797911	     -5.03238681	     14.08279960	     28.25800603	     85.20317207	      7.73035059	     -6.80534085	     19.32560212	     29.55582672	     78.59017314
      0.03333330	      0.88640355	      1.26642653	     -3.71692948	     -0.93377522	      1.31800635	     -0.08205876	     -3.71195188	     -3.15507504	     11.03671826	      0.19081911	      0.00333042	      8.42521813	    -11.35581175	     -7.39406135	     -4.14636575	      0.05543201	      7.75768331	      0.23361666	      0.00407738	      7.94606384	    -11.01432129	     -7.39406135	    -14.89847849	     -1.95972388	      3.86790880	      8.40918351	     -5.30578881	     15.33245196	     28.37461276	     88.95267177	      7.47149413	     -6.73326853	     17.68295759	     30.09937162	     87.74796033
      0.03750000	      0.93327889	      1.22313356	     -4.01504422	     -0.93601402	      1.31214142	     -0.08197035	     -3.74302880	     -3.14605428	     11.55739676	      0.19164536	      0.00334484	      7.91424301	    -12.41361498	     -7.42484831	     -4.24782519	      0.01701191	      7.82122628	      0.23356943	      0.00407656	      8.01998514	    -11.39968167	     -7.42484831	    -14.90245269	     -1.91134661	      4.09501207	      8.37735606	     -5.59285638	     16.79037958	     28.74968722	     85.08648397	      7.50874916	     -6.88673362	     18.81352624	     30.49908821	     84.16415950
      0.04166670	      0.72156949	      1.20982883	     -4.11097814	     -0.93607502	      1.31141439	     -0.08246277	     -3.50004101	     -3.14676885	     11.44657901	      0.19360801	      0.00337910	      7.69795786	    -12.61614241	     -7.45541377	     -4.03433597	     -0.00684562	      8.43313527	      0.23633788	      0.00412487	      7.68292538	    -12.38836115	     -7.45541377	    -14.50648307	     -1.79864005	      4.13737955	      8.47221684	     -5.92425147	     18.35743983	     28.66318781	     84.77741247	      7.55946849	     -6.99368311	     19.64571114	     30.43751896	     84.38018208
      0.04583330	      0.68939493	      1.16839945	     -4.33544943	     -0.93475918	      1.31376963	     -0.08196011	     -3.43783956	     -3.12205843	     11.53246501	      0.19423579	      0.00339005	      7.66255799	    -12.62356578	     -7.45573401	     -4.06215718	     -0.05809705	      8.42736198	      0.23512549	      0.00410371	      7.74482968	    -12.33420001	     -7.45573401	    -14.39890457	     -1.71011365	      4.19818071	      8.41706151	     -5.97110624	     18.33848211	     28.74520335	     84.76664449	      7.49981550	     -7.01657676	     19.60356999	     30.52340077	     84.37728639
      0.05000000	      0.28602207	      1.15325528	     -4.46110774	     -0.93379186	      1.31467693	     -0.08246315	     -2.94904991	     -3.08209126	     11.97881693	      0.19060894	      0.00332675	      6.89301243	    -13.98090580	     -7.46444268	     -3.65430480	     -0.09907107	      8.71377961	      0.23341105	      0.00407379	      7.40915823	    -13.01695113	     -7.46444268	    -13.77194750	     -1.59491307	      4.40774218	      8.15904230	     -6.18929411	     18.64549217	     28.87617752	     85.18639102	      7.32144423	     -6.99277128	     19.51666219	     30.63211105	     85.04695465
      0.05416670	      0.11283676	      1.11379350	     -4.49142327	     -0.93560469	      1.31210359	     -0.08135310	     -2.68971355	     -3.00238148	     11.90430300	      0.18472891	      0.00322413	      6.62281582	    -14.32233405	     -7.47279260	     -3.44305427	     -0.15015417	      8.94403692	      0.23275538	      0.00406235	      7.21712245	    -13.49395176	     -7.47279260	    -13.62602781	     -1.50512702	      4.45019562	      8.12569388	     -6.35528766	     18.92009396	     29.13140834	     85.02284250	      7.31098541	     -7.10372871	     19.68929016	     30.90629398	     85.09972234
      0.05833330	     -0.09907042	      1.07971945	     -4.54119199	     -0.93471786	      1.31308336	     -0.08130454	     -2.40955543	     -2.92266514	     11.85896875	      0.18214019	      0.00317895	      6.45655819	    -14.56556118	     -7.48496570	     -3.21214558	     -0.23316932	      8.86864630	      0.23315263	      0.00406928	      7.22716127	    -13.47282070	     -7.48496570	    -13.40712748	     -1.41175621	      4.48674108	      7.94873784	     -6.27289101	     17.34836162	     29.18867629	     90.63338238	      7.23754906	     -6.94217816	     18.00421360	     30.84706546	     91.40402296
      0.06250000	     -0.26813295	      1.07666144	     -4.61054723	     -0.93599261	      1.31458665	     -0.08225115	     -2.14703214	     -2.90166457	     11.86128090	      0.17833737	      0.00311257	      6.26844936	    -14.87583597	     -7.48631296	     -3.00661646	     -0.26464139	      8.87022330	      0.23145871	      0.00403972	      7.00430050	    -13.65459412	     -7.48631296	    -13.23310706	     -1.36197142	      4.50510626	      7.96864549	     -6.33408304	     17.58375393	     29.22302828	     89.66586539	      7.26741885	     -6.95518073	     18.23979993	     30.81054332	     90.43311120
